<svg width="24" height="24" viewBox="0 0 24 24" fill="none" xmlns="http://www.w3.org/2000/svg">
<path d="M17.5065 7.17568C17.2487 7.17568 17.0198 7.01111 16.9377 6.76681L16.5789 5.69919C16.2779 4.80345 15.4385 4.2 14.4935 4.2H9.50646C8.5615 4.2 7.72209 4.80345 7.42107 5.69919L7.06228 6.76681C6.98019 7.01111 6.75126 7.17568 6.49354 7.17568H5.4C4.18497 7.17568 3.2 8.16066 3.2 9.37568V17.6C3.2 18.815 4.18497 19.8 5.4 19.8H18.6C19.815 19.8 20.8 18.815 20.8 17.6V9.37568C20.8 8.16065 19.815 7.17568 18.6 7.17568H17.5065Z" stroke="#363941" stroke-width="1.6" stroke-miterlimit="10"/>
<path d="M11.9663 16.9043C14.149 16.9043 15.9184 15.1348 15.9184 12.9521C15.9184 10.7694 14.149 9 11.9663 9C9.78359 9 8.01416 10.7694 8.01416 12.9521C8.01416 15.1348 9.78359 16.9043 11.9663 16.9043Z" stroke="#363941" stroke-width="1.6" stroke-miterlimit="10"/>
</svg>
